<svg xmlns="http://www.w3.org/2000/svg" xmlns:xlink="http://www.w3.org/1999/xlink" width="500" zoomAndPan="magnify" viewBox="0 0 375 374.999991" height="500" preserveAspectRatio="xMidYMid meet" version="1.0"><defs><g/><clipPath id="8780ca79fd"><path d="M 138 124.796875 L 243 124.796875 L 243 181 L 138 181 Z M 138 124.796875 " clip-rule="nonzero"/></clipPath><clipPath id="b4bf472b74"><path d="M 97.714844 167 L 276.964844 167 L 276.964844 189 L 97.714844 189 Z M 97.714844 167 " clip-rule="nonzero"/></clipPath></defs><g clip-path="url(#8780ca79fd)"><path fill="#0c2950" d="M 187.34375 135.328125 L 149.179688 173.617188 L 151.292969 173.617188 L 182.113281 142.695312 L 187.34375 144.601562 L 192.578125 142.695312 L 230.304688 180.546875 L 232.417969 180.546875 Z M 147.394531 173.617188 L 187.34375 133.535156 L 234.207031 180.546875 L 242.984375 180.546875 L 187.347656 124.726562 L 138.617188 173.617188 Z M 147.394531 173.617188 " fill-opacity="1" fill-rule="evenodd"/></g><path fill="#0c2950" d="M 188.078125 151.679688 L 193.683594 151.679688 L 193.683594 157.308594 L 188.078125 157.308594 Z M 181.003906 158.878906 L 186.613281 158.878906 L 186.613281 164.503906 L 181.003906 164.503906 Z M 188.078125 158.878906 L 193.683594 158.878906 L 193.683594 164.503906 L 188.078125 164.503906 Z M 181.003906 151.679688 L 186.613281 151.679688 L 186.613281 157.308594 L 181.003906 157.308594 Z M 181.003906 151.679688 " fill-opacity="1" fill-rule="evenodd"/><g clip-path="url(#b4bf472b74)"><path fill="#2f92ea" d="M 97.839844 174.511719 C 168.878906 150.910156 211.503906 199.683594 276.851562 169.6875 C 224.023438 212.488281 151.375 165.953125 97.839844 174.511719 " fill-opacity="1" fill-rule="evenodd"/></g><path fill="#2f92ea" d="M 106.25 176.308594 C 148.394531 177.796875 182.761719 197.710938 226.703125 192.125 C 173.398438 202.75 151.648438 184.929688 106.25 176.308594 " fill-opacity="1" fill-rule="evenodd"/><g fill="#0c2950" fill-opacity="1"><g transform="translate(73.13028, 229.379047)"><g><path d="M 17.964844 -24.046875 L 17.964844 -9.378906 L 7.417969 -24.046875 L 2.746094 -24.046875 L 2.746094 0 L 7.832031 0 L 7.832031 -15.011719 L 18.722656 0 L 23.082031 0 L 23.082031 -24.046875 Z M 17.964844 -24.046875 "/></g></g></g><g fill="#0c2950" fill-opacity="1"><g transform="translate(98.95972, 229.379047)"><g><path d="M 22.773438 -24.046875 L 17.210938 -24.046875 L 11.644531 -14.394531 L 6.113281 -24.046875 L 0.582031 -24.046875 L 8.964844 -9.722656 L 8.964844 0 L 14.289062 0 L 14.289062 -9.6875 Z M 22.773438 -24.046875 "/></g></g></g><g fill="#0c2950" fill-opacity="1"><g transform="translate(122.28177, 229.379047)"><g><path d="M 21.367188 0 L 13.84375 -12.398438 L 20.746094 -24.046875 L 15.046875 -24.046875 L 10.71875 -16.625 L 6.421875 -24.046875 L 0.582031 -24.046875 L 7.589844 -12.605469 L 0.101562 0 L 5.976562 0 L 10.785156 -8.242188 L 15.527344 0 Z M 21.367188 0 "/></g></g></g><g fill="#0c2950" fill-opacity="1"><g transform="translate(143.749054, 229.379047)"><g/></g></g><g fill="#ffffff" fill-opacity="1"><g transform="translate(151.950587, 229.379047)"><g><path d="M 19.304688 -24.046875 L 0.722656 -24.046875 L 0.722656 -19.203125 L 7.417969 -19.203125 L 7.417969 0 L 12.605469 0 L 12.605469 -19.203125 L 19.304688 -19.203125 Z M 19.304688 -24.046875 "/></g></g></g><g fill="#ffffff" fill-opacity="1"><g transform="translate(172.009619, 229.379047)"><g><path d="M 15.972656 0 L 21.777344 0 L 16.453125 -9.070312 C 19.132812 -10.375 20.851562 -12.914062 20.851562 -16.074219 C 20.851562 -20.714844 17.242188 -24.046875 12.433594 -24.046875 L 2.746094 -24.046875 L 2.746094 0 L 7.933594 0 L 7.933594 -8.175781 L 11.265625 -8.175781 Z M 7.933594 -19.234375 L 12.089844 -19.234375 C 14.289062 -19.234375 15.5625 -17.894531 15.5625 -16.109375 C 15.5625 -14.289062 14.289062 -12.984375 12.089844 -12.984375 L 7.933594 -12.984375 Z M 7.933594 -19.234375 "/></g></g></g><g fill="#ffffff" fill-opacity="1"><g transform="translate(194.713414, 229.379047)"><g><path d="M 18.6875 0 L 24.355469 0 L 14.632812 -24.046875 L 9.722656 -24.046875 L 0.273438 0 L 5.804688 0 L 7.453125 -4.535156 L 17.003906 -4.535156 Z M 12.230469 -17.691406 L 15.390625 -9.070312 L 9.070312 -9.070312 Z M 12.230469 -17.691406 "/></g></g></g><g fill="#ffffff" fill-opacity="1"><g transform="translate(219.375029, 229.379047)"><g><path d="M 18 -24.046875 L 12.089844 -7.042969 L 6.011719 -24.046875 L 0.273438 -24.046875 L 9.652344 0 L 14.5625 0 L 23.667969 -24.046875 Z M 18 -24.046875 "/></g></g></g><g fill="#ffffff" fill-opacity="1"><g transform="translate(243.487077, 229.379047)"><g><path d="M 7.933594 -4.808594 L 7.933594 -9.753906 L 16.28125 -9.753906 L 16.28125 -14.460938 L 7.933594 -14.460938 L 7.933594 -19.234375 L 17.175781 -19.234375 L 17.175781 -24.046875 L 2.746094 -24.046875 L 2.746094 0 L 17.554688 0 L 17.554688 -4.808594 Z M 7.933594 -4.808594 "/></g></g></g><g fill="#ffffff" fill-opacity="1"><g transform="translate(262.687413, 229.379047)"><g><path d="M 7.933594 -4.808594 L 7.933594 -24.046875 L 2.746094 -24.046875 L 2.746094 0 L 17.175781 0 L 17.175781 -4.808594 Z M 7.933594 -4.808594 "/></g></g></g><g fill="#ffffff" fill-opacity="1"><g transform="translate(280.616881, 229.379047)"><g><path d="M 10.71875 0.480469 C 15.699219 0.480469 19.820312 -2.027344 19.820312 -7.214844 C 19.820312 -12.605469 15.21875 -13.738281 11.574219 -14.667969 C 9 -15.285156 6.9375 -15.800781 6.9375 -17.484375 C 6.9375 -19.0625 8.621094 -19.785156 10.304688 -19.785156 C 12.261719 -19.785156 13.980469 -18.824219 13.980469 -16.726562 L 19.097656 -16.726562 C 19.097656 -21.539062 15.972656 -24.492188 10.441406 -24.492188 C 5.117188 -24.492188 1.71875 -21.882812 1.71875 -17.277344 C 1.71875 -12.089844 6.113281 -11.027344 9.753906 -10.132812 C 12.367188 -9.550781 14.5625 -9.035156 14.5625 -7.144531 C 14.5625 -5.359375 12.640625 -4.328125 10.683594 -4.328125 C 8.554688 -4.328125 6.628906 -5.460938 6.628906 -7.761719 L 1.375 -7.761719 C 1.375 -2.609375 5.1875 0.480469 10.71875 0.480469 Z M 10.71875 0.480469 "/></g></g></g></svg>